<svg xmlns="http://www.w3.org/2000/svg" xmlns:xlink="http://www.w3.org/1999/xlink" fill="none" version="1.1" width="5.333333373069763" height="9.333333373069763" viewBox="0 0 5.333333373069763 9.333333373069763"><g transform="matrix(0,-1,-1,0,13.333333373069763,13.333333373069763)"><path d="M8.666666686534882,9.609475686534882L12.195266686534882,13.13806668653488L12.19643668653488,13.136896686534882Q12.289976686534882,13.230426686534882,12.41218668653488,13.281046686534882Q12.534386686534882,13.33166668653488,12.666666686534882,13.33166668653488Q12.732166686534882,13.33166668653488,12.796396686534882,13.318886686534881Q12.860636686534882,13.306106686534882,12.92114668653488,13.281046686534882Q12.981656686534881,13.255976686534883,13.036116686534882,13.219596686534882Q13.090576686534881,13.18320668653488,13.136896686534882,13.136896686534882Q13.183206686534882,13.090576686534881,13.219596686534882,13.036116686534882Q13.255976686534881,12.981666686534883,13.281046686534882,12.921146686534883Q13.306106686534882,12.860636686534882,13.318886686534881,12.796396686534882Q13.33166668653488,12.732166686534882,13.33166668653488,12.666666686534882Q13.33166668653488,12.534386686534882,13.281046686534882,12.41218668653488Q13.230426686534882,12.289976686534882,13.136896686534882,12.19643668653488L13.13806668653488,12.195266686534882L9.13806668653488,8.19526168653488Q9.091636686534882,8.148832686534881,9.037046686534882,8.112353686534881Q8.982446686534882,8.075874686534881,8.921786686534881,8.050746686534882Q8.861126686534881,8.025619686534881,8.796726686534882,8.012809686534881Q8.732326686534883,7.999999686534881,8.666666686534882,7.999999686534881Q8.601006686534882,7.999999686534881,8.536606686534881,8.012809686534881Q8.472206686534882,8.025619686534881,8.411546686534882,8.050746686534882Q8.350876686534882,8.075874686534881,8.29628668653488,8.112353686534881Q8.241686686534882,8.148832686534881,8.195266686534882,8.19526168653488L4.195261686534882,12.195266686534882L4.196440686534881,12.19643668653488Q4.102906686534881,12.289976686534882,4.052286686534882,12.41218668653488Q4.001666686534882,12.534386686534882,4.001666686534882,12.666666686534882Q4.001666686534882,12.732166686534882,4.0144446865348815,12.796396686534882Q4.0272226865348815,12.860636686534882,4.052286686534882,12.921146686534883Q4.077351686534882,12.981666686534883,4.113739686534881,13.036116686534882Q4.150127686534882,13.090576686534881,4.196440686534881,13.136896686534882Q4.242753686534882,13.18320668653488,4.297212686534881,13.219596686534882Q4.351670686534882,13.255976686534883,4.412182686534882,13.281046686534882Q4.472693686534882,13.306106686534882,4.536931686534881,13.318886686534881Q4.601169886534882,13.33166668653488,4.666666686534882,13.33166668653488Q4.798943686534882,13.33166668653488,4.921150686534881,13.281046686534882Q5.043358686534882,13.230426686534882,5.136892686534882,13.136896686534882L5.138071686534881,13.13806668653488L8.666666686534882,9.609475686534882Z" fill-rule="evenodd" fill="#404040" fill-opacity="1"/></g></svg>