<svg xmlns="http://www.w3.org/2000/svg" xmlns:xlink="http://www.w3.org/1999/xlink" fill="none" version="1.1" width="80" height="80" viewBox="0 0 80 80"><g><g><rect x="0" y="0" width="80" height="80" rx="0" fill="#F6F6F6" fill-opacity="0"/></g><g><rect x="15" y="21" width="20" height="14" rx="4" fill="#EDEDED" fill-opacity="1"/></g><g><rect x="44" y="21" width="20" height="14" rx="4" fill="#EDEDED" fill-opacity="1"/></g><g><rect x="15" y="45" width="49" height="14" rx="4" fill="#EDEDED" fill-opacity="1"/></g><g transform="matrix(-1,0,0,-1,76,74)"><path d="M37.335,43L37.335,41Q37.335,39.80624,37.9084133,38.75921L39.07493,39.39806Q38.665,40.14658,38.665,41L38.665,43L37.335,43ZM41.72997,36.342822Q41.864869999999996,36.335,42,36.335L45.7573,36.335L45.7573,37.665L42,37.665Q41.9034,37.665,41.806960000000004,37.670592L41.72997,36.342822ZM49.7573,36.335L53.7573,36.335L53.7573,37.665L49.7573,37.665L49.7573,36.335ZM57.7875,38.27661Q58.665,39.49695,58.665,41L58.665,42.5146L57.335,42.5146L57.335,41Q57.335,39.92547,56.7077,39.05306L57.7875,38.27661ZM58.665,46.5146L58.665,50.5146L57.335,50.5146L57.335,46.5146L58.665,46.5146ZM56.9517,54.6124Q55.6635,55.665,54,55.665L52.7281,55.665L52.7281,54.335L54,54.335Q55.1893,54.335,56.1102,53.582499999999996L56.9517,54.6124ZM48.7281,55.665L44.72809,55.665L44.72809,54.335L48.7281,54.335L48.7281,55.665ZM40.54497,55.4323Q38.0821035,54.6238,37.467861,52.1054L38.759982,51.7903Q39.1991,53.590599999999995,40.9598,54.1686L40.54497,55.4323ZM37.335,51L37.335,47L38.665,47L38.665,51L37.335,51Z" fill="#CCCCCC" fill-opacity="1"/></g><g transform="matrix(-1,0,0,-1,120,122)"><path d="M59.335,67L59.335,65Q59.335,63.80624,59.9084133,62.75921L61.07493,63.39806Q60.665,64.14658,60.665,65L60.665,67L59.335,67ZM63.72997,60.342822Q63.864869999999996,60.335,64,60.335L67.7573,60.335L67.7573,61.665L64,61.665Q63.9034,61.665,63.806960000000004,61.670592L63.72997,60.342822ZM71.7573,60.335L75.7573,60.335L75.7573,61.665L71.7573,61.665L71.7573,60.335ZM79.7573,60.335L83.7573,60.335L83.7573,61.665L79.7573,61.665L79.7573,60.335ZM87.7573,60.335L91.7573,60.335L91.7573,61.665L87.7573,61.665L87.7573,60.335ZM95.7573,60.335L98,60.335Q99.0447,60.335,99.9896,60.780541L99.4223,61.983516Q98.74680000000001,61.665,98,61.665L95.7573,61.665L95.7573,60.335ZM102.63300000000001,64.45481Q102.66499999999999,64.72645,102.66499999999999,65L102.66499999999999,68.51461L101.33500000000001,68.51461L101.33500000000001,65Q101.33500000000001,64.80446,101.3121,64.61024L102.63300000000001,64.45481ZM102.66499999999999,72.5146L102.66499999999999,75Q102.66499999999999,75.8991,102.33080000000001,76.7338L101.0961,76.23949999999999Q101.33500000000001,75.6428,101.33500000000001,75L101.33500000000001,72.5146L102.66499999999999,72.5146ZM98.82419999999999,79.5916Q98.4153,79.66499999999999,98,79.66499999999999L94.7281,79.66499999999999L94.7281,78.33500000000001L98,78.33500000000001Q98.2969,78.33500000000001,98.5892,78.2825L98.82419999999999,79.5916ZM90.7281,79.66499999999999L86.7281,79.66499999999999L86.7281,78.33500000000001L90.7281,78.33500000000001L90.7281,79.66499999999999ZM82.7281,79.66499999999999L78.7281,79.66499999999999L78.7281,78.33500000000001L82.7281,78.33500000000001L82.7281,79.66499999999999ZM74.7281,79.66499999999999L70.7281,79.66499999999999L70.7281,78.33500000000001L74.7281,78.33500000000001L74.7281,79.66499999999999ZM66.72809,79.66499999999999L64,79.66499999999999Q63.25387,79.66499999999999,62.54496,79.4323L62.95979,78.1686Q63.46659,78.33500000000001,64,78.33500000000001L66.72809,78.33500000000001L66.72809,79.66499999999999ZM59.467857,76.1054Q59.335,75.5607,59.335,75L59.335,71L60.665,71L60.665,75Q60.665,75.4008,60.759979,75.7902L59.467857,76.1054Z" fill="#CCCCCC" fill-opacity="1"/></g></g></svg>